<svg id="Layer_1" data-name="Layer 1" xmlns="http://www.w3.org/2000/svg" viewBox="0 0 530.01 197.32"><defs><style>.cls-1{fill:#fffffe;}</style></defs><path class="cls-1" d="M290.23,468.54q.7-22.11.84-23.39a3,3,0,0,1,3-2.82c3.88-.34,11.79-.42,23.54-.42s19.52.07,23.4.4a3.11,3.11,0,0,1,3.1,2.73c.59,4.18.71,11.61.71,21a2.82,2.82,0,0,1-.78,2.3,2.46,2.46,0,0,1-1.34.67,3.45,3.45,0,0,1-1.2-.23,2.49,2.49,0,0,1-1.34-1.3,16.15,16.15,0,0,0-4.79-5.24,10,10,0,0,0-6.2-1.95,3.32,3.32,0,0,0-3.1,1.76,11.22,11.22,0,0,0-.85,4.9v1c.05,2.94.38,8.68.85,16.9s1,16.82,1.48,26.25.82,15.75.92,18.31v.28a3.3,3.3,0,0,1-.92,2.17,7.4,7.4,0,0,1-2.33,1.78,46.73,46.73,0,0,1-7.47,2.83A37.21,37.21,0,0,1,310.1,538a3.5,3.5,0,0,1-2.25-.51,2,2,0,0,1-.85-1.73v-.29c1.21-22.17,2.38-44.35,3-66.55v-1.22a12.21,12.21,0,0,0-.78-4.95,2.91,2.91,0,0,0-3-1.64,10.36,10.36,0,0,0-6.13,2.62,20.34,20.34,0,0,0-5.14,6.21,3,3,0,0,1-1.34,1.62,3.12,3.12,0,0,1-1.2.35,2.17,2.17,0,0,1-1.34-.72A3.63,3.63,0,0,1,290.23,468.54Z" transform="translate(-274.99 -441.34)"/><path class="cls-1" d="M342.52,525.62A374.41,374.41,0,0,1,349.08,481c2.67-12.21,5.91-24.32,9.79-36.22a3.62,3.62,0,0,1,3-2.47,64,64,0,0,1,9.17-.43,65.65,65.65,0,0,1,9.3.42,3.59,3.59,0,0,1,3,2.47,359.22,359.22,0,0,1,9.72,38.4,464.87,464.87,0,0,1,6.63,48v.7c0,1.4-.9,2-2.68,1.71a54.7,54.7,0,0,1-7.05-1.73,67.35,67.35,0,0,1-7.33-2.48c-1.76-.78-2.67-2-2.67-3.47v-.27a62.6,62.6,0,0,0,.42-7.26,58.52,58.52,0,0,0-.71-9.8,6.26,6.26,0,0,0-2.25-3.74,10.13,10.13,0,0,0-4.51-1.93c-.54-.12-1.18-.29-1.83-.37s-1.17-.06-1.7-.08c-3.61-.15-6.21,1-6.76,3.88a50.11,50.11,0,0,0-.71,9.32,71,71,0,0,0,.43,7.63v.27c0,1.39-.94,2.33-2.68,2.69-1.9.4-4.56.68-7.75,1.14a63,63,0,0,1-6.63.78c-1.75,0-2.68-.67-2.68-2Zm24.25-33.2a5.53,5.53,0,0,0,3.38,1.4L372,494a4.47,4.47,0,0,0,3.31-.56,2.57,2.57,0,0,0,1.06-2.1v-.69A135.63,135.63,0,0,0,373,468c-.47-2.12-1.13-3.21-2-3.22s-1.51,1-2,3.11a142,142,0,0,0-3.24,21.81v.55A2.94,2.94,0,0,0,366.77,492.42Z" transform="translate(-274.99 -441.34)"/><path class="cls-1" d="M407.36,445.3a3,3,0,0,1,2.68-3,40.52,40.52,0,0,1,7-.43,41.56,41.56,0,0,1,7,.43c1.86.34,2.82,1.27,2.82,2.69a2.58,2.58,0,0,1-.14.86,157.86,157.86,0,0,0-2.53,24.61,9.44,9.44,0,0,0,1,4.42c.66,1.27,1.46,1.92,2.4,1.94,3.19,0,5.87-3.43,8-10.29a73.24,73.24,0,0,0,3.53-20.79c0-2,1.2-3.11,3.24-3.48a38.41,38.41,0,0,1,6.62-.55,39.67,39.67,0,0,1,7.05.55c2.11.39,3.24,1.62,3.24,3.51v.28c-.21,11.05-2,20.31-5.46,26.37a25.68,25.68,0,0,1-14.84,12c-1,.52-1.55,1-1.55,1.49s.56,1.17,1.69,1.82a28.57,28.57,0,0,1,11.94,9.47c3.08,4.18,5.59,10.54,7.55,18.87A138.56,138.56,0,0,1,462,545.9V546c0,1.69-1.12,2.3-3.36,2-1.21-.26-3.77-1.31-7.68-2.76-3.45-1.27-6.24-2.14-8.12-2.93-2.21-.92-3.37-2.33-3.37-4.18v-2a97.39,97.39,0,0,0-3.58-26c-2.39-8.57-5.28-12.66-8.66-12.85-.95,0-1.72.71-2.33,2.29a15.57,15.57,0,0,0-.92,5.69c.09,10.6,1.57,21.38,3,32v.71c0,1.51-1,2.43-2.82,2.51a31.27,31.27,0,0,1-7.47-.89,41.38,41.38,0,0,1-8.17-2.45,4.68,4.68,0,0,1-3.1-4.41C405.42,503.57,405.79,474.4,407.36,445.3Z" transform="translate(-274.99 -441.34)"/><path class="cls-1" d="M469.51,445.32c.1-1.35,1.18-2.5,3-3a24,24,0,0,1,5.64-.42,26.68,26.68,0,0,1,5.64.43,3.27,3.27,0,0,1,2.81,3.08c1.28,37.55,1.38,75.17,1.32,112.7,0,2.06-1.09,2.86-3.12,2.32a41.33,41.33,0,0,1-6.91-2.69,58.77,58.77,0,0,1-7-3.86,6,6,0,0,1-3.08-5.06C467.85,514.35,468.06,479.79,469.51,445.32Z" transform="translate(-274.99 -441.34)"/><path class="cls-1" d="M496.86,445.29c.19-1.9,1.15-2.92,2.82-3.09a191.37,191.37,0,0,1,19.46-.86c8.55,0,15.25,2,20.12,6.12s7.31,10.58,7.38,19.85a63,63,0,0,1-8.64,31.6c-4.41,7.58-13.71,16.17-22.77,18-1.81.58-2.73,3.05-2.7,7.3A177,177,0,0,0,514.6,548c1.29,8.73,2,13.12,2.08,14.42v.6c0,1.59-1,2.69-2.86,3.13a30.61,30.61,0,0,1-8.22.21,27.21,27.21,0,0,1-8.16-1.69,4.15,4.15,0,0,1-2.86-3.74C494.64,522.44,494.75,483.78,496.86,445.29Zm16.23,51.63c0,1.89.52,2.9,1.56,2.88a2.76,2.76,0,0,0,1.28-.4c4.16-1.24,7.48-4.19,9.94-8.59a29.34,29.34,0,0,0,3.66-14.62c0-8.83-3.82-12.85-11.36-12.89a23.41,23.41,0,0,0-2.69.15c-1.43.12-2.33,1-2.4,3-.13,3.9-.42,8.61-.42,13.73S513,491,513.09,496.92Z" transform="translate(-274.99 -441.34)"/><path class="cls-1" d="M551.07,550.44c-.05-8.2-.08-12.6-.13-21.64,0-2.38.33-3.76,1-4.11a7.83,7.83,0,0,0,1.33-.76c.85-.1,1.65.43,2.41,1.58,4.62,6.06,10.48,7.48,17.36,5.17a16.42,16.42,0,0,0,7.71-5.19,13.5,13.5,0,0,0,3-8.56,12.69,12.69,0,0,0-3.3-8.77,38.39,38.39,0,0,0-7.88-6.6c-3-1.95-6-4.11-9.12-6.5a29.66,29.66,0,0,1-8-10.19,33.73,33.73,0,0,1-3.4-15.17c-.06-9.45,2.34-16.47,7.19-21.27s11.28-6.95,19.27-6.95a40.71,40.71,0,0,1,18,3.84,4.69,4.69,0,0,1,2.12,3.61c.1,1.75,0,4.73.06,8.64s.07,6.88.07,8.82v.44c0,1.56-.33,2.48-1,2.75a5.35,5.35,0,0,1-1.27.42c-.84,0-1.64-.52-2.39-1.67-3.66-4.57-8.13-6.78-13.39-6.5a12.65,12.65,0,0,0-7.79,2.93A9,9,0,0,0,570,472a13.84,13.84,0,0,0,2.37,7.62,21.59,21.59,0,0,0,6,6.05c2.45,1.65,5.08,3.59,7.89,5.79s5.43,4.39,7.82,6.57a26.83,26.83,0,0,1,8.38,19.63c0,8.4-2.5,15.09-7.48,20.71s-11.6,9.5-19.84,12.66c-8.72,3.34-15.66,4.42-22.17,3C551.8,553.52,551.18,552.36,551.07,550.44Z" transform="translate(-274.99 -441.34)"/><path class="cls-1" d="M609.91,445.17c.09-1.28,1.17-2.4,3-2.88a25.38,25.38,0,0,1,5.64-.4,27.6,27.6,0,0,1,5.64.41,3.19,3.19,0,0,1,2.82,2.91c1.24,30.8,1.51,61.66,1.54,92.45a3.42,3.42,0,0,1-3.11,3.58,51.06,51.06,0,0,1-6.91.75,54.93,54.93,0,0,1-7,.09c-2-.15-3.11-1.25-3.1-3.16C608.37,507.69,608.63,476.4,609.91,445.17Z" transform="translate(-274.99 -441.34)"/><path class="cls-1" d="M637.4,445c.09-1.49,1.12-2.37,3.1-2.65a61.36,61.36,0,0,1,8.17-.42,39.36,39.36,0,0,1,6.34.41,4,4,0,0,1,2.19,1,2.37,2.37,0,0,1,.77,1.73v.27c-2.53,19.43-5,39.06-5,58.68,0,.85,0,1.67,0,2.43,0,10.78,3.78,16.47,11.25,18.87,3.79,1.21,6.83,1.58,9.15.76s4.37-3.08,6.15-7c.38-.93.82-1.41,1.34-1.45a3.25,3.25,0,0,1,1,0,3.69,3.69,0,0,1,1.53,1.37,5.69,5.69,0,0,1,1,3.13c.51,9.46.73,19.31.81,28.75,0,1.77-.94,2.32-2.79,1.62-2.86-1.1-10.42-5.49-22.79-9-10.79-3.08-18-2.24-21.42-2.51-2.06-.17-3.11-1.21-3.1-3.06C635.24,507.06,635.58,475.92,637.4,445Z" transform="translate(-274.99 -441.34)"/><path class="cls-1" d="M693.33,445.37a3.61,3.61,0,0,1,3-3,23.9,23.9,0,0,1,5.64-.43,26.68,26.68,0,0,1,5.64.43,3.24,3.24,0,0,1,2.8,3.08c1.27,38.42,1.36,76.91,1.28,115.32,0,2-1.14,3-3.24,2.71a33.84,33.84,0,0,1-7.1-2,45.39,45.39,0,0,1-7.12-3.37,5.63,5.63,0,0,1-3.09-5C691.39,517.24,691.67,481.26,693.33,445.37Z" transform="translate(-274.99 -441.34)"/><path class="cls-1" d="M352.36,552.26c4.95-10.43,11.8-15.49,20-14.22a25.74,25.74,0,0,1,14.24,7.52,7.48,7.48,0,0,1,1.6,4.56v.68c0,1.61-.1,4.56-.31,8.93s-.34,7.47-.43,9.22c-.07,1.57-.39,2.38-.92,2.42a6.9,6.9,0,0,1-.92,0c-.74-.14-1.35-.81-1.84-2-2.95-6.21-6.55-9.77-10.81-10.35q-5.52-.75-8.84,7.83c-2.21,5.74-3.59,15-3.31,26.44.2,8.57.26,23.49,8.59,25.1,2,.38,4.38-1.75,5.77-5.37s2.09-8.32,2.09-14.19c0-6.06-.86-11.05-2.58-14.93a3,3,0,0,1-.49-1.66,3.58,3.58,0,0,1,.37-1.29c.25-.56.87-.86,1.84-.83a86.13,86.13,0,0,1,13.51,1.45c1.6.3,2.54,1.52,2.7,3.49,1,14.45,1.42,29,1.48,43.38v6.47c0,1.84-.86,2.83-2.58,3s-3.48.24-5.28.24-3.78-.07-5.65-.25a2.34,2.34,0,0,1-2.46-2.52V635c.33-3.4.49-6.65.49-9.68a5,5,0,0,0-.31-2.16c-.2-.36-.38-.54-.55-.55s-.26.16-.55.47a4.38,4.38,0,0,0-.68,2.08c-2.21,9.3-6.3,13.49-12.28,13.49-5.81,0-10.7-3.18-14.12-10-5.23-10.38-5.45-23.11-5.4-34.27C344.81,580.39,346.08,565.5,352.36,552.26Z" transform="translate(-274.99 -441.34)"/><path class="cls-1" d="M427.27,554.13a2.36,2.36,0,0,1,2.46-2.39,51,51,0,0,1,16.89,1.79A36.62,36.62,0,0,1,464,565c4.2,4.9,6.31,10.18,6.33,15.77,0,7-2.49,11.69-7.54,15.56s-11.56,6.11-19.57,6.69c-1.55.22-2.35,1.74-2.33,4.45a102.26,102.26,0,0,0,1.79,16.1c1.1,6.32,1.7,10.09,1.78,11.17v.49c0,1.34-.86,2.28-2.45,2.64a40.9,40.9,0,0,1-7.13.38,41.53,41.53,0,0,1-7-.36c-1.58-.32-2.45-1.26-2.45-2.55C425.46,608.32,425.71,581.18,427.27,554.13Zm14.11,36.36c0,1.16.45,1.84,1.35,1.93a2.92,2.92,0,0,0,1.1-.11,13.11,13.11,0,0,0,8.56-3.58,10.65,10.65,0,0,0,3.17-8c0-5.44-3.27-9.52-9.78-11.07a19.05,19.05,0,0,0-2.33-.4c-1.29-.17-2,.34-2.08,1.65-.11,2.57-.36,5.68-.36,9S441.26,586.83,441.38,590.49Z" transform="translate(-274.99 -441.34)"/><path class="cls-1" d="M468,635.11a318.87,318.87,0,0,1,5.59-37.4,145,145,0,0,1,8.43-26.37c.41-.89,1.28-1.18,2.58-.86,1.47.36,4.15,1.35,8,2.55s6.74,1.85,8.22,2.33a3.91,3.91,0,0,1,2.64,2.23c3,8.11,5.72,16,8.48,25.34,3.12,10.55,4.52,21.41,5.77,32.37v.57c0,1.14-.79,1.84-2.34,2.08a42,42,0,0,1-6.14.35,39.77,39.77,0,0,1-6.39-.37c-1.52-.27-2.33-1.13-2.33-2.37v-.23a53.39,53.39,0,0,0,.36-6.09,38.45,38.45,0,0,0-.62-7.56,3.85,3.85,0,0,0-2-2.52,9.86,9.86,0,0,0-3.94-1c-.47,0-1-.14-1.6-.16s-1,0-1.48,0c-3.16,0-5.42.89-5.89,3.25a39.76,39.76,0,0,0-.59,7.77,58.42,58.42,0,0,0,.38,6.42v.24c0,1.17-.81,2-2.32,2.25a43.09,43.09,0,0,1-6.76.36,33.46,33.46,0,0,1-5.77-.37c-1.53-.29-2.34-1.11-2.34-2.33Zm21.05-25a5,5,0,0,0,3,1.16l1.6.13a4.47,4.47,0,0,0,2.9-.51,1.86,1.86,0,0,0,.92-1.55v-.49a84.77,84.77,0,0,0-3-16.23c-.41-1.58-1-2.49-1.74-2.66s-1.31.46-1.72,1.9a79.72,79.72,0,0,0-2.78,16.06v.43A2.33,2.33,0,0,0,489.08,610.1Z" transform="translate(-274.99 -441.34)"/><path class="cls-1" d="M522.81,635.09c.09-19.3.42-38.65,2.42-57.91.08-1.12,1-2.11,2.63-2.71a30.44,30.44,0,0,1,4.27-1.08,35.74,35.74,0,0,1,4.12-.56,4.14,4.14,0,0,1,4.23,2.06,104.29,104.29,0,0,0,7,16.62c2.71,5.21,4.83,7.8,6.38,7.55.9-.14,1.46-1,1.68-2.62a35.83,35.83,0,0,0,.34-4.3c0-1.26-.07-3-.26-5.32s-.48-4.85-.91-7.75-.86-5.47-1.34-7.71v-.52c0-1.34.95-2.6,2.71-3.52a36.14,36.14,0,0,1,4.86-1.93,28.06,28.06,0,0,1,4.55-1.23c1.6-.26,2.53.31,2.6,1.55,1.77,19.87,1.7,40,1.68,59.85,0,8.39-2.25,13.1-6.68,13.1-2.21,0-4.33-1.43-6.35-4.11a38.93,38.93,0,0,1-5.08-9.28c-1.37-3.46-2.65-6.73-3.85-9.84a51,51,0,0,0-3.57-7.57c-1.17-2-2.26-2.86-3.25-2.76-1.32.14-2.16,2.3-2.27,6.44-.12,4.42.65,11.28,2,23.21v.56c0,1.44-1,2.31-3,2.65a39.94,39.94,0,0,1-6.14.35,33.37,33.37,0,0,1-5.89-.35C523.85,637.58,522.81,636.51,522.81,635.09Z" transform="translate(-274.99 -441.34)"/><path class="cls-1" d="M574.75,635.14a367.77,367.77,0,0,1,5.7-40.77c2.33-11.92,5-23.82,8.53-35.48a4.12,4.12,0,0,1,2.57-2.72,43.15,43.15,0,0,1,8-1.83,41.75,41.75,0,0,1,8.11-.71,2.73,2.73,0,0,1,2.58,2,299.42,299.42,0,0,1,8.49,35.53A423.31,423.31,0,0,1,624.49,635v.63c0,1.25-.79,2-2.34,2.25a38.66,38.66,0,0,1-6.14.38,38.27,38.27,0,0,1-6.38-.38,2.5,2.5,0,0,1-2.34-2.53v-.25a62.71,62.71,0,0,0,.37-6.87A60.63,60.63,0,0,0,607,619a4.85,4.85,0,0,0-2-3.23,7.35,7.35,0,0,0-3.93-1.12c-.46,0-1-.09-1.6-.07s-1,.11-1.47.16c-3.08.34-5.42,1.7-5.9,4.56a56.06,56.06,0,0,0-.61,9c0,2.27.13,4.61.37,7v.25c0,1.25-.82,2.11-2.33,2.38a42.38,42.38,0,0,1-6.75.39,33.52,33.52,0,0,1-5.78-.37c-1.53-.28-2.33-1.1-2.33-2.3Zm21.11-30.42a3.81,3.81,0,0,0,2.95,1l1.6-.08a3.91,3.91,0,0,0,2.88-1.12,3.44,3.44,0,0,0,.92-2.33v-.71a150.07,150.07,0,0,0-3-22.7c-.41-2.07-1-3.06-1.72-3s-1.31,1.21-1.72,3.35A175.3,175.3,0,0,0,595,602v.57A2.94,2.94,0,0,0,595.86,604.72Z" transform="translate(-274.99 -441.34)"/><path class="cls-1" d="M631.35,554.78a3.17,3.17,0,0,1,2.95-2.66,32,32,0,0,1,4.92-.45,27.49,27.49,0,0,1,5.4.31,2.83,2.83,0,0,1,2.58,2.86v.25q-1,10.26-1,26.35c0,3.44,1.76,5.2,5.27,5.61,1.27.09,1.9.15,3.17.28,3.58.22,5.35-1.17,5.35-4.45,0-9.86-.32-18.52-.89-26v-.37c0-1.54.85-2.22,2.53-2a30.09,30.09,0,0,1,5.3,1.55,31.24,31.24,0,0,1,4.7,2.08c1.85,1.15,2.82,2.44,2.9,3.79,1.89,24.28,2.07,48.7,2.23,73,0,1.63-1,2.65-2.93,3a40.5,40.5,0,0,1-6.14.37,38.18,38.18,0,0,1-6.51-.38,2.53,2.53,0,0,1-2.34-2.63v-.62c.73-9.57,1.08-18.41,1.07-26.77,0-3.4-1.76-5.33-5.26-5.67-1.27-.07-1.91-.09-3.18-.12-3.35.07-5,2-5,5.49,0,9.9.37,18.92,1.11,27.13V635a2.74,2.74,0,0,1-2.46,3,41.82,41.82,0,0,1-6.63.37,39.19,39.19,0,0,1-6-.38c-2-.31-3-1.34-3-3C629.54,608.24,629.35,581.41,631.35,554.78Z" transform="translate(-274.99 -441.34)"/><path class="cls-1" d="M688.19,575.85c4.18-5.25,10.28-6.08,18.37-3.6s14.41,6.49,18.81,12S732,596.88,732,607.31c0,9.82-2.14,18-6.36,23s-10.47,8.31-18.66,8.31-14.49-3.07-18.66-8.78c-5.1-7-6.92-18.71-6.51-27C682.27,594,682.25,583.29,688.19,575.85Zm9.33,29.34c.05,5.76.89,10.16,2.51,12.81a8.09,8.09,0,0,0,7,4.14c6.18.18,9.29-5.61,9.29-14.85,0-5.59-.86-9.92-2.56-13.61s-4-6-7-6.76-5.32.47-6.94,3.79S697.45,598.83,697.52,605.19Z" transform="translate(-274.99 -441.34)"/><path class="cls-1" d="M737.33,635.07c0-20.54.26-41.16,2.12-61.68.08-1.19,1-2.42,2.58-3.49a38.62,38.62,0,0,1,4.18-2.27,40.13,40.13,0,0,1,4.06-1.68c1.87-.66,3.28-.25,4.18,1.21a143.65,143.65,0,0,0,7.1,17.79c2.75,5.87,4.91,8.94,6.47,8.6.9-.2,1.45-1.26,1.66-3.19a50.85,50.85,0,0,0,.3-5.18q0-2.26-.31-6.34t-1-9.06q-.67-5-1.42-8.67v-.59A5,5,0,0,1,770,556.4a24.06,24.06,0,0,1,4.92-2.21,17.93,17.93,0,0,1,4.68-1c1.65-.08,2.63.74,2.71,2.12,1.92,23.1,1.93,46.39,2,69.51,0,9.17-2.21,13.84-6.63,13.84-2.22,0-4.35-1.48-6.39-4.35a42,42,0,0,1-5.17-10.12q-2.09-5.78-3.94-11.08a60.77,60.77,0,0,0-3.63-8.59c-1.19-2.22-2.28-3.16-3.26-2.94-1.31.29-2.13,2.86-2.21,7.6-.08,5,.76,12.85,2.24,25.4v.59c0,1.51-1,2.42-2.94,2.77a38.36,38.36,0,0,1-6.14.36,33.56,33.56,0,0,1-5.9-.35C738.38,637.57,737.33,636.5,737.33,635.07Z" transform="translate(-274.99 -441.34)"/><path class="cls-1" d="M780.6,483.88a4.65,4.65,0,0,1,0-8.92c2.28-.56,3.89-1.07,5.08-2.41a1.32,1.32,0,0,0,.32-1q-.76-13.11-1.73-26.19a3.26,3.26,0,0,0-2.82-3.08,39.83,39.83,0,0,0-7.19-.42,40.73,40.73,0,0,0-6.77.42,6.75,6.75,0,0,0-3.1,1.27,5.76,5.76,0,0,0-1.41,3c-.31,1.31-.8,3.4-1.27,6.23s-1,6.21-1.7,10.22-1.13,7.06-1.42,9c-2.08,11.92-3.82,18.62-5.23,19-1.6.38-3.59-5.59-5.49-17.58-2.38-15-3.59-23.83-4.2-26.58a5.94,5.94,0,0,0-1.55-3.14,6.59,6.59,0,0,0-3.1-1.32,37.58,37.58,0,0,0-6.77-.44,44.18,44.18,0,0,0-7,.43,3.3,3.3,0,0,0-3,3.27q-3.66,58.06-3.82,116.32v.29a3.24,3.24,0,0,0,2.79,3.4,19.39,19.39,0,0,0,7.29-.45,25.88,25.88,0,0,0,7.73-2.77,5.45,5.45,0,0,0,2.81-4.61v-.3a235.44,235.44,0,0,1-1.8-30.35c0-1.3,0-2.61,0-3.92.1-17.51,1.21-27.24,2.27-27.22.23,0,.61.3,1,.7.84,1.39,2.06,8.41,3.65,20.22a162,162,0,0,0,3.37,16.64c1,3.84,3.1,5.13,5.64,3.87,2.73-1.36,4.78-4.49,5.8-9.18,2-9.41,3-15.61,3.4-17.84.2-1.21.4-2.68.64-4.39s.42-3.12.57-4.27.33-2.4.56-3.78.45-2.5.64-3.38.4-1.72.64-2.5a9.39,9.39,0,0,1,.7-1.8,1.33,1.33,0,0,1,.78-.71c1.5-.32,2.25,7,2.25,21.73v3.76A239.66,239.66,0,0,1,767.45,543v.43c0,1.68.93,2.34,2.69,2,1.21-.22,3.91-1.32,8.05-2.48,2.83-.79,5.35-1.26,7.2-1.8a3.56,3.56,0,0,0,2.83-3.66c-.11-16.26-.59-32.62-1.34-49a1.49,1.49,0,0,0-.14-.55C785.49,485.28,783.63,484.63,780.6,483.88Z" transform="translate(-274.99 -441.34)"/><path class="cls-1" d="M804.33,480.48c-7.26,1.81-9.4,4.8-10.63,15.47-.14,1.23-1.48,1.23-1.62,0-1.23-10.67-3.37-13.66-10.63-15.47a1.17,1.17,0,0,1,0-2.12c7.26-1.81,9.4-4.8,10.63-15.46.14-1.23,1.48-1.23,1.62,0,1.23,10.66,3.37,13.65,10.63,15.46A1.17,1.17,0,0,1,804.33,480.48Z" transform="translate(-274.99 -441.34)"/><path class="cls-1" d="M337.5,544.54c-.08-1.49-1.06-2.3-2.7-2.2a22.69,22.69,0,0,0-4.66.91,26.79,26.79,0,0,0-4.92,1.81,4.51,4.51,0,0,0-2.7,4v.64q.74,4.18,1.41,10c.45,3.91.78,7.51,1,10.75s.3,5.79.3,7.6-.1,3.88-.3,6.18-.76,3.51-1.66,3.64c-1.56.23-3.71-3.77-6.45-11.6s-5-15.4-7-23a2.58,2.58,0,0,0-.17-.49,4.16,4.16,0,0,0-4.06-2.59,30.57,30.57,0,0,0-4.06.37,23.9,23.9,0,0,0-4.17,1,3.49,3.49,0,0,0-2.58,3.08c-1.17,14.81-1.7,29.67-2,44.54a2.47,2.47,0,0,0,.16.9c1.25,3.23,3.16,3.93,6.43,4.74a4.65,4.65,0,0,1,0,8.92c-3.5.87-5.43,1.62-6.68,5.47a2.3,2.3,0,0,0-.12.74q0,7.5,0,15c0,1.55,1,2.67,2.95,3.06a32.12,32.12,0,0,0,5.89.37,38.05,38.05,0,0,0,6.14-.37c1.93-.34,2.95-1.25,2.95-2.8v-.61c-1-9.76-2.31-19.74-2.21-29.41.06-5.94.9-9.14,2.21-9.27,1-.1,2.07,1.29,3.25,4.21a108.73,108.73,0,0,1,3.62,10.79c1.23,4.26,2.54,8.53,3.93,12.77a40.91,40.91,0,0,0,5.16,10.71c2.05,2.91,4.18,4.34,6.39,4.34,4.42,0,6.64-4.51,6.63-14.46C339.44,597.7,339.54,571,337.5,544.54Z" transform="translate(-274.99 -441.34)"/><path class="cls-1" d="M298.55,610.26c-7.26,1.81-9.4,4.8-10.63,15.46-.14,1.23-1.48,1.23-1.62,0-1.23-10.66-3.37-13.65-10.63-15.46a1.17,1.17,0,0,1,0-2.12c7.26-1.81,9.4-4.8,10.63-15.46.14-1.23,1.48-1.23,1.62,0,1.23,10.66,3.37,13.65,10.63,15.46A1.17,1.17,0,0,1,298.55,610.26Z" transform="translate(-274.99 -441.34)"/></svg>